ISO-10303-21;
HEADER;
/* Generated by software containing ST-Developer
 * from STEP Tools, Inc. (www.steptools.com) 
 */

FILE_DESCRIPTION(
/* description */ (''),
/* implementation_level */ '2;1');

FILE_NAME(
/* name */ 'Aft_Closure.step',
/* time_stamp */ '2026-06-08T14:19:20+05:30',
/* author */ (''),
/* organization */ (''),
/* preprocessor_version */ 'ST-DEVELOPER v20.1',
/* originating_system */ 'Autodesk Translation Framework v15.8.0.0',
/* authorisation */ '');

FILE_SCHEMA (('AUTOMOTIVE_DESIGN { 1 0 10303 214 3 1 1 }'));
ENDSEC;

DATA;
#10=MECHANICAL_DESIGN_GEOMETRIC_PRESENTATION_REPRESENTATION('',(#13),#404);
#11=SHAPE_REPRESENTATION_RELATIONSHIP('SRR','None',#411,#12);
#12=ADVANCED_BREP_SHAPE_REPRESENTATION('',(#14),#403);
#13=STYLED_ITEM('',(#421),#14);
#14=MANIFOLD_SOLID_BREP('Body1',#228);
#15=FACE_BOUND('',#53,.T.);
#16=FACE_BOUND('',#57,.T.);
#17=FACE_BOUND('',#58,.T.);
#18=FACE_BOUND('',#59,.T.);
#19=FACE_BOUND('',#60,.T.);
#20=FACE_BOUND('',#61,.T.);
#21=FACE_BOUND('',#62,.T.);
#22=FACE_BOUND('',#63,.T.);
#23=FACE_BOUND('',#65,.T.);
#24=FACE_BOUND('',#66,.T.);
#25=FACE_BOUND('',#67,.T.);
#26=FACE_BOUND('',#68,.T.);
#27=FACE_BOUND('',#69,.T.);
#28=FACE_BOUND('',#70,.T.);
#29=FACE_BOUND('',#71,.T.);
#30=PLANE('',#263);
#31=PLANE('',#270);
#32=PLANE('',#271);
#33=FACE_OUTER_BOUND('',#45,.T.);
#34=FACE_OUTER_BOUND('',#46,.T.);
#35=FACE_OUTER_BOUND('',#47,.T.);
#36=FACE_OUTER_BOUND('',#48,.T.);
#37=FACE_OUTER_BOUND('',#49,.T.);
#38=FACE_OUTER_BOUND('',#50,.T.);
#39=FACE_OUTER_BOUND('',#51,.T.);
#40=FACE_OUTER_BOUND('',#52,.T.);
#41=FACE_OUTER_BOUND('',#54,.T.);
#42=FACE_OUTER_BOUND('',#55,.T.);
#43=FACE_OUTER_BOUND('',#56,.T.);
#44=FACE_OUTER_BOUND('',#64,.T.);
#45=EDGE_LOOP('',(#153,#154,#155,#156));
#46=EDGE_LOOP('',(#157,#158,#159,#160));
#47=EDGE_LOOP('',(#161,#162,#163,#164));
#48=EDGE_LOOP('',(#165,#166,#167,#168));
#49=EDGE_LOOP('',(#169,#170,#171,#172));
#50=EDGE_LOOP('',(#173,#174,#175,#176));
#51=EDGE_LOOP('',(#177,#178,#179,#180));
#52=EDGE_LOOP('',(#181));
#53=EDGE_LOOP('',(#182));
#54=EDGE_LOOP('',(#183,#184,#185,#186));
#55=EDGE_LOOP('',(#187,#188,#189,#190));
#56=EDGE_LOOP('',(#191));
#57=EDGE_LOOP('',(#192));
#58=EDGE_LOOP('',(#193));
#59=EDGE_LOOP('',(#194));
#60=EDGE_LOOP('',(#195));
#61=EDGE_LOOP('',(#196));
#62=EDGE_LOOP('',(#197));
#63=EDGE_LOOP('',(#198));
#64=EDGE_LOOP('',(#199));
#65=EDGE_LOOP('',(#200));
#66=EDGE_LOOP('',(#201));
#67=EDGE_LOOP('',(#202));
#68=EDGE_LOOP('',(#203));
#69=EDGE_LOOP('',(#204));
#70=EDGE_LOOP('',(#205));
#71=EDGE_LOOP('',(#206));
#72=LINE('',#348,#81);
#73=LINE('',#354,#82);
#74=LINE('',#360,#83);
#75=LINE('',#366,#84);
#76=LINE('',#372,#85);
#77=LINE('',#378,#86);
#78=LINE('',#384,#87);
#79=LINE('',#391,#88);
#80=LINE('',#397,#89);
#81=VECTOR('',#278,1.75);
#82=VECTOR('',#285,1.75);
#83=VECTOR('',#292,1.75);
#84=VECTOR('',#299,1.75);
#85=VECTOR('',#306,1.75);
#86=VECTOR('',#313,1.75);
#87=VECTOR('',#320,13.3);
#88=VECTOR('',#329,8.);
#89=VECTOR('',#336,21.);
#90=CIRCLE('',#243,1.75);
#91=CIRCLE('',#244,1.75);
#92=CIRCLE('',#246,1.75);
#93=CIRCLE('',#247,1.75);
#94=CIRCLE('',#249,1.75);
#95=CIRCLE('',#250,1.75);
#96=CIRCLE('',#252,1.75);
#97=CIRCLE('',#253,1.75);
#98=CIRCLE('',#255,1.75);
#99=CIRCLE('',#256,1.75);
#100=CIRCLE('',#258,1.75);
#101=CIRCLE('',#259,1.75);
#102=CIRCLE('',#261,13.3);
#103=CIRCLE('',#262,13.3);
#104=CIRCLE('',#264,8.);
#105=CIRCLE('',#266,8.);
#106=CIRCLE('',#268,21.);
#107=CIRCLE('',#269,21.);
#108=VERTEX_POINT('',#345);
#109=VERTEX_POINT('',#347);
#110=VERTEX_POINT('',#351);
#111=VERTEX_POINT('',#353);
#112=VERTEX_POINT('',#357);
#113=VERTEX_POINT('',#359);
#114=VERTEX_POINT('',#363);
#115=VERTEX_POINT('',#365);
#116=VERTEX_POINT('',#369);
#117=VERTEX_POINT('',#371);
#118=VERTEX_POINT('',#375);
#119=VERTEX_POINT('',#377);
#120=VERTEX_POINT('',#381);
#121=VERTEX_POINT('',#383);
#122=VERTEX_POINT('',#387);
#123=VERTEX_POINT('',#390);
#124=VERTEX_POINT('',#394);
#125=VERTEX_POINT('',#396);
#126=EDGE_CURVE('',#108,#108,#90,.T.);
#127=EDGE_CURVE('',#108,#109,#72,.T.);
#128=EDGE_CURVE('',#109,#109,#91,.T.);
#129=EDGE_CURVE('',#110,#110,#92,.T.);
#130=EDGE_CURVE('',#110,#111,#73,.T.);
#131=EDGE_CURVE('',#111,#111,#93,.T.);
#132=EDGE_CURVE('',#112,#112,#94,.T.);
#133=EDGE_CURVE('',#112,#113,#74,.T.);
#134=EDGE_CURVE('',#113,#113,#95,.T.);
#135=EDGE_CURVE('',#114,#114,#96,.T.);
#136=EDGE_CURVE('',#114,#115,#75,.T.);
#137=EDGE_CURVE('',#115,#115,#97,.T.);
#138=EDGE_CURVE('',#116,#116,#98,.T.);
#139=EDGE_CURVE('',#116,#117,#76,.T.);
#140=EDGE_CURVE('',#117,#117,#99,.T.);
#141=EDGE_CURVE('',#118,#118,#100,.T.);
#142=EDGE_CURVE('',#118,#119,#77,.T.);
#143=EDGE_CURVE('',#119,#119,#101,.T.);
#144=EDGE_CURVE('',#120,#120,#102,.T.);
#145=EDGE_CURVE('',#120,#121,#78,.T.);
#146=EDGE_CURVE('',#121,#121,#103,.T.);
#147=EDGE_CURVE('',#122,#122,#104,.T.);
#148=EDGE_CURVE('',#122,#123,#79,.T.);
#149=EDGE_CURVE('',#123,#123,#105,.T.);
#150=EDGE_CURVE('',#124,#124,#106,.T.);
#151=EDGE_CURVE('',#124,#125,#80,.T.);
#152=EDGE_CURVE('',#125,#125,#107,.T.);
#153=ORIENTED_EDGE('',*,*,#126,.F.);
#154=ORIENTED_EDGE('',*,*,#127,.T.);
#155=ORIENTED_EDGE('',*,*,#128,.F.);
#156=ORIENTED_EDGE('',*,*,#127,.F.);
#157=ORIENTED_EDGE('',*,*,#129,.F.);
#158=ORIENTED_EDGE('',*,*,#130,.T.);
#159=ORIENTED_EDGE('',*,*,#131,.F.);
#160=ORIENTED_EDGE('',*,*,#130,.F.);
#161=ORIENTED_EDGE('',*,*,#132,.F.);
#162=ORIENTED_EDGE('',*,*,#133,.T.);
#163=ORIENTED_EDGE('',*,*,#134,.F.);
#164=ORIENTED_EDGE('',*,*,#133,.F.);
#165=ORIENTED_EDGE('',*,*,#135,.F.);
#166=ORIENTED_EDGE('',*,*,#136,.T.);
#167=ORIENTED_EDGE('',*,*,#137,.F.);
#168=ORIENTED_EDGE('',*,*,#136,.F.);
#169=ORIENTED_EDGE('',*,*,#138,.F.);
#170=ORIENTED_EDGE('',*,*,#139,.T.);
#171=ORIENTED_EDGE('',*,*,#140,.F.);
#172=ORIENTED_EDGE('',*,*,#139,.F.);
#173=ORIENTED_EDGE('',*,*,#141,.F.);
#174=ORIENTED_EDGE('',*,*,#142,.T.);
#175=ORIENTED_EDGE('',*,*,#143,.F.);
#176=ORIENTED_EDGE('',*,*,#142,.F.);
#177=ORIENTED_EDGE('',*,*,#144,.F.);
#178=ORIENTED_EDGE('',*,*,#145,.T.);
#179=ORIENTED_EDGE('',*,*,#146,.T.);
#180=ORIENTED_EDGE('',*,*,#145,.F.);
#181=ORIENTED_EDGE('',*,*,#146,.F.);
#182=ORIENTED_EDGE('',*,*,#147,.F.);
#183=ORIENTED_EDGE('',*,*,#147,.T.);
#184=ORIENTED_EDGE('',*,*,#148,.T.);
#185=ORIENTED_EDGE('',*,*,#149,.T.);
#186=ORIENTED_EDGE('',*,*,#148,.F.);
#187=ORIENTED_EDGE('',*,*,#150,.F.);
#188=ORIENTED_EDGE('',*,*,#151,.T.);
#189=ORIENTED_EDGE('',*,*,#152,.T.);
#190=ORIENTED_EDGE('',*,*,#151,.F.);
#191=ORIENTED_EDGE('',*,*,#150,.T.);
#192=ORIENTED_EDGE('',*,*,#126,.T.);
#193=ORIENTED_EDGE('',*,*,#129,.T.);
#194=ORIENTED_EDGE('',*,*,#132,.T.);
#195=ORIENTED_EDGE('',*,*,#135,.T.);
#196=ORIENTED_EDGE('',*,*,#138,.T.);
#197=ORIENTED_EDGE('',*,*,#141,.T.);
#198=ORIENTED_EDGE('',*,*,#144,.T.);
#199=ORIENTED_EDGE('',*,*,#152,.F.);
#200=ORIENTED_EDGE('',*,*,#128,.T.);
#201=ORIENTED_EDGE('',*,*,#131,.T.);
#202=ORIENTED_EDGE('',*,*,#134,.T.);
#203=ORIENTED_EDGE('',*,*,#137,.T.);
#204=ORIENTED_EDGE('',*,*,#140,.T.);
#205=ORIENTED_EDGE('',*,*,#143,.T.);
#206=ORIENTED_EDGE('',*,*,#149,.F.);
#207=CYLINDRICAL_SURFACE('',#242,1.75);
#208=CYLINDRICAL_SURFACE('',#245,1.75);
#209=CYLINDRICAL_SURFACE('',#248,1.75);
#210=CYLINDRICAL_SURFACE('',#251,1.75);
#211=CYLINDRICAL_SURFACE('',#254,1.75);
#212=CYLINDRICAL_SURFACE('',#257,1.75);
#213=CYLINDRICAL_SURFACE('',#260,13.3);
#214=CYLINDRICAL_SURFACE('',#265,8.);
#215=CYLINDRICAL_SURFACE('',#267,21.);
#216=ADVANCED_FACE('',(#33),#207,.F.);
#217=ADVANCED_FACE('',(#34),#208,.F.);
#218=ADVANCED_FACE('',(#35),#209,.F.);
#219=ADVANCED_FACE('',(#36),#210,.F.);
#220=ADVANCED_FACE('',(#37),#211,.F.);
#221=ADVANCED_FACE('',(#38),#212,.F.);
#222=ADVANCED_FACE('',(#39),#213,.F.);
#223=ADVANCED_FACE('',(#40,#15),#30,.T.);
#224=ADVANCED_FACE('',(#41),#214,.F.);
#225=ADVANCED_FACE('',(#42),#215,.T.);
#226=ADVANCED_FACE('',(#43,#16,#17,#18,#19,#20,#21,#22),#31,.T.);
#227=ADVANCED_FACE('',(#44,#23,#24,#25,#26,#27,#28,#29),#32,.F.);
#228=CLOSED_SHELL('',(#216,#217,#218,#219,#220,#221,#222,#223,#224,#225,
#226,#227));
#229=DERIVED_UNIT_ELEMENT(#231,1.);
#230=DERIVED_UNIT_ELEMENT(#406,-3.);
#231=(
MASS_UNIT()
NAMED_UNIT(*)
SI_UNIT(.KILO.,.GRAM.)
);
#232=DERIVED_UNIT((#229,#230));
#233=MEASURE_REPRESENTATION_ITEM('density measure',
POSITIVE_RATIO_MEASURE(2700.),#232);
#234=PROPERTY_DEFINITION_REPRESENTATION(#239,#236);
#235=PROPERTY_DEFINITION_REPRESENTATION(#240,#237);
#236=REPRESENTATION('material name',(#238),#403);
#237=REPRESENTATION('density',(#233),#403);
#238=DESCRIPTIVE_REPRESENTATION_ITEM('Aluminum 6061 T6 0 Cold Formed',
'Aluminum 6061 T6 0 Cold Formed');
#239=PROPERTY_DEFINITION('material property','material name',#413);
#240=PROPERTY_DEFINITION('material property','density of part',#413);
#241=AXIS2_PLACEMENT_3D('',#343,#272,#273);
#242=AXIS2_PLACEMENT_3D('',#344,#274,#275);
#243=AXIS2_PLACEMENT_3D('',#346,#276,#277);
#244=AXIS2_PLACEMENT_3D('',#349,#279,#280);
#245=AXIS2_PLACEMENT_3D('',#350,#281,#282);
#246=AXIS2_PLACEMENT_3D('',#352,#283,#284);
#247=AXIS2_PLACEMENT_3D('',#355,#286,#287);
#248=AXIS2_PLACEMENT_3D('',#356,#288,#289);
#249=AXIS2_PLACEMENT_3D('',#358,#290,#291);
#250=AXIS2_PLACEMENT_3D('',#361,#293,#294);
#251=AXIS2_PLACEMENT_3D('',#362,#295,#296);
#252=AXIS2_PLACEMENT_3D('',#364,#297,#298);
#253=AXIS2_PLACEMENT_3D('',#367,#300,#301);
#254=AXIS2_PLACEMENT_3D('',#368,#302,#303);
#255=AXIS2_PLACEMENT_3D('',#370,#304,#305);
#256=AXIS2_PLACEMENT_3D('',#373,#307,#308);
#257=AXIS2_PLACEMENT_3D('',#374,#309,#310);
#258=AXIS2_PLACEMENT_3D('',#376,#311,#312);
#259=AXIS2_PLACEMENT_3D('',#379,#314,#315);
#260=AXIS2_PLACEMENT_3D('',#380,#316,#317);
#261=AXIS2_PLACEMENT_3D('',#382,#318,#319);
#262=AXIS2_PLACEMENT_3D('',#385,#321,#322);
#263=AXIS2_PLACEMENT_3D('',#386,#323,#324);
#264=AXIS2_PLACEMENT_3D('',#388,#325,#326);
#265=AXIS2_PLACEMENT_3D('',#389,#327,#328);
#266=AXIS2_PLACEMENT_3D('',#392,#330,#331);
#267=AXIS2_PLACEMENT_3D('',#393,#332,#333);
#268=AXIS2_PLACEMENT_3D('',#395,#334,#335);
#269=AXIS2_PLACEMENT_3D('',#398,#337,#338);
#270=AXIS2_PLACEMENT_3D('',#399,#339,#340);
#271=AXIS2_PLACEMENT_3D('',#400,#341,#342);
#272=DIRECTION('axis',(0.,0.,1.));
#273=DIRECTION('refdir',(1.,0.,0.));
#274=DIRECTION('center_axis',(0.,0.,-1.));
#275=DIRECTION('ref_axis',(-1.,0.,0.));
#276=DIRECTION('center_axis',(0.,0.,-1.));
#277=DIRECTION('ref_axis',(-1.,0.,0.));
#278=DIRECTION('',(0.,0.,-1.));
#279=DIRECTION('center_axis',(0.,0.,1.));
#280=DIRECTION('ref_axis',(-1.,0.,0.));
#281=DIRECTION('center_axis',(0.,0.,-1.));
#282=DIRECTION('ref_axis',(-1.,0.,0.));
#283=DIRECTION('center_axis',(0.,0.,-1.));
#284=DIRECTION('ref_axis',(-1.,0.,0.));
#285=DIRECTION('',(0.,0.,-1.));
#286=DIRECTION('center_axis',(0.,0.,1.));
#287=DIRECTION('ref_axis',(-1.,0.,0.));
#288=DIRECTION('center_axis',(0.,0.,-1.));
#289=DIRECTION('ref_axis',(-1.,0.,0.));
#290=DIRECTION('center_axis',(0.,0.,-1.));
#291=DIRECTION('ref_axis',(-1.,0.,0.));
#292=DIRECTION('',(0.,0.,-1.));
#293=DIRECTION('center_axis',(0.,0.,1.));
#294=DIRECTION('ref_axis',(-1.,0.,0.));
#295=DIRECTION('center_axis',(0.,0.,-1.));
#296=DIRECTION('ref_axis',(-1.,0.,0.));
#297=DIRECTION('center_axis',(0.,0.,-1.));
#298=DIRECTION('ref_axis',(-1.,0.,0.));
#299=DIRECTION('',(0.,0.,-1.));
#300=DIRECTION('center_axis',(0.,0.,1.));
#301=DIRECTION('ref_axis',(-1.,0.,0.));
#302=DIRECTION('center_axis',(0.,0.,-1.));
#303=DIRECTION('ref_axis',(-1.,0.,0.));
#304=DIRECTION('center_axis',(0.,0.,-1.));
#305=DIRECTION('ref_axis',(-1.,0.,0.));
#306=DIRECTION('',(0.,0.,-1.));
#307=DIRECTION('center_axis',(0.,0.,1.));
#308=DIRECTION('ref_axis',(-1.,0.,0.));
#309=DIRECTION('center_axis',(0.,0.,-1.));
#310=DIRECTION('ref_axis',(-1.,0.,0.));
#311=DIRECTION('center_axis',(0.,0.,-1.));
#312=DIRECTION('ref_axis',(-1.,0.,0.));
#313=DIRECTION('',(0.,0.,-1.));
#314=DIRECTION('center_axis',(0.,0.,1.));
#315=DIRECTION('ref_axis',(-1.,0.,0.));
#316=DIRECTION('center_axis',(0.,0.,-1.));
#317=DIRECTION('ref_axis',(-1.,0.,0.));
#318=DIRECTION('center_axis',(0.,0.,-1.));
#319=DIRECTION('ref_axis',(-1.,0.,0.));
#320=DIRECTION('',(0.,0.,-1.));
#321=DIRECTION('center_axis',(0.,0.,-1.));
#322=DIRECTION('ref_axis',(-1.,0.,0.));
#323=DIRECTION('center_axis',(0.,0.,1.));
#324=DIRECTION('ref_axis',(-1.,0.,0.));
#325=DIRECTION('center_axis',(0.,0.,1.));
#326=DIRECTION('ref_axis',(1.,0.,0.));
#327=DIRECTION('center_axis',(0.,0.,1.));
#328=DIRECTION('ref_axis',(1.,0.,0.));
#329=DIRECTION('',(0.,0.,-1.));
#330=DIRECTION('center_axis',(0.,0.,-1.));
#331=DIRECTION('ref_axis',(1.,0.,0.));
#332=DIRECTION('center_axis',(0.,0.,1.));
#333=DIRECTION('ref_axis',(1.,0.,0.));
#334=DIRECTION('center_axis',(0.,0.,1.));
#335=DIRECTION('ref_axis',(1.,0.,0.));
#336=DIRECTION('',(0.,0.,-1.));
#337=DIRECTION('center_axis',(0.,0.,1.));
#338=DIRECTION('ref_axis',(1.,0.,0.));
#339=DIRECTION('center_axis',(0.,0.,1.));
#340=DIRECTION('ref_axis',(1.,0.,0.));
#341=DIRECTION('center_axis',(0.,0.,1.));
#342=DIRECTION('ref_axis',(1.,0.,0.));
#343=CARTESIAN_POINT('',(0.,0.,0.));
#344=CARTESIAN_POINT('Origin',(8.75000000000001,15.1554445662277,8.));
#345=CARTESIAN_POINT('',(10.5,15.1554445662277,8.));
#346=CARTESIAN_POINT('Origin',(8.75000000000001,15.1554445662277,8.));
#347=CARTESIAN_POINT('',(10.5,15.1554445662277,0.));
#348=CARTESIAN_POINT('',(10.5,15.1554445662277,8.));
#349=CARTESIAN_POINT('Origin',(8.75000000000001,15.1554445662277,0.));
#350=CARTESIAN_POINT('Origin',(-8.75,-15.1554445662277,8.));
#351=CARTESIAN_POINT('',(-7.,-15.1554445662277,8.));
#352=CARTESIAN_POINT('Origin',(-8.75,-15.1554445662277,8.));
#353=CARTESIAN_POINT('',(-7.,-15.1554445662277,0.));
#354=CARTESIAN_POINT('',(-7.,-15.1554445662277,8.));
#355=CARTESIAN_POINT('Origin',(-8.75,-15.1554445662277,0.));
#356=CARTESIAN_POINT('Origin',(17.5,-1.56798663057329E-15,8.));
#357=CARTESIAN_POINT('',(19.25,-1.3536734407225E-15,8.));
#358=CARTESIAN_POINT('Origin',(17.5,-1.56798663057329E-15,8.));
#359=CARTESIAN_POINT('',(19.25,-1.3536734407225E-15,0.));
#360=CARTESIAN_POINT('',(19.25,-1.78229982042408E-15,8.));
#361=CARTESIAN_POINT('Origin',(17.5,-1.56798663057329E-15,0.));
#362=CARTESIAN_POINT('Origin',(-8.74999999999999,15.1554445662277,8.));
#363=CARTESIAN_POINT('',(-6.99999999999999,15.1554445662277,8.));
#364=CARTESIAN_POINT('Origin',(-8.74999999999999,15.1554445662277,8.));
#365=CARTESIAN_POINT('',(-6.99999999999999,15.1554445662277,0.));
#366=CARTESIAN_POINT('',(-6.99999999999999,15.1554445662277,8.));
#367=CARTESIAN_POINT('Origin',(-8.74999999999999,15.1554445662277,0.));
#368=CARTESIAN_POINT('Origin',(-17.5,-1.16956882557389E-15,8.));
#369=CARTESIAN_POINT('',(-15.75,-9.55255635723101E-16,8.));
#370=CARTESIAN_POINT('Origin',(-17.5,-1.16956882557389E-15,8.));
#371=CARTESIAN_POINT('',(-15.75,-9.55255635723101E-16,0.));
#372=CARTESIAN_POINT('',(-15.75,-1.38388201542467E-15,8.));
#373=CARTESIAN_POINT('Origin',(-17.5,-1.16956882557389E-15,0.));
#374=CARTESIAN_POINT('Origin',(8.75,-15.1554445662277,8.));
#375=CARTESIAN_POINT('',(10.5,-15.1554445662277,8.));
#376=CARTESIAN_POINT('Origin',(8.75,-15.1554445662277,8.));
#377=CARTESIAN_POINT('',(10.5,-15.1554445662277,0.));
#378=CARTESIAN_POINT('',(10.5,-15.1554445662277,8.));
#379=CARTESIAN_POINT('Origin',(8.75,-15.1554445662277,0.));
#380=CARTESIAN_POINT('Origin',(0.,0.,8.));
#381=CARTESIAN_POINT('',(13.3,1.62878024286598E-15,8.));
#382=CARTESIAN_POINT('Origin',(0.,0.,8.));
#383=CARTESIAN_POINT('',(13.3,1.62878024286598E-15,5.));
#384=CARTESIAN_POINT('',(13.3,-1.62878024286598E-15,8.));
#385=CARTESIAN_POINT('Origin',(0.,0.,5.));
#386=CARTESIAN_POINT('Origin',(0.,0.,5.));
#387=CARTESIAN_POINT('',(-8.,-9.79717439317883E-16,5.));
#388=CARTESIAN_POINT('Origin',(0.,0.,5.));
#389=CARTESIAN_POINT('Origin',(0.,0.,0.));
#390=CARTESIAN_POINT('',(-8.,-9.79717439317883E-16,0.));
#391=CARTESIAN_POINT('',(-8.,-9.79717439317883E-16,0.));
#392=CARTESIAN_POINT('Origin',(0.,0.,0.));
#393=CARTESIAN_POINT('Origin',(0.,0.,0.));
#394=CARTESIAN_POINT('',(-21.,-2.57175827820944E-15,8.));
#395=CARTESIAN_POINT('Origin',(0.,0.,8.));
#396=CARTESIAN_POINT('',(-21.,-2.57175827820944E-15,0.));
#397=CARTESIAN_POINT('',(-21.,-2.57175827820944E-15,0.));
#398=CARTESIAN_POINT('Origin',(0.,0.,0.));
#399=CARTESIAN_POINT('Origin',(0.,0.,8.));
#400=CARTESIAN_POINT('Origin',(0.,0.,0.));
#401=UNCERTAINTY_MEASURE_WITH_UNIT(LENGTH_MEASURE(0.01),#405,
'DISTANCE_ACCURACY_VALUE',
'Maximum model space distance between geometric entities at asserted c
onnectivities');
#402=UNCERTAINTY_MEASURE_WITH_UNIT(LENGTH_MEASURE(0.01),#405,
'DISTANCE_ACCURACY_VALUE',
'Maximum model space distance between geometric entities at asserted c
onnectivities');
#403=(
GEOMETRIC_REPRESENTATION_CONTEXT(3)
GLOBAL_UNCERTAINTY_ASSIGNED_CONTEXT((#401))
GLOBAL_UNIT_ASSIGNED_CONTEXT((#405,#407,#408))
REPRESENTATION_CONTEXT('','3D')
);
#404=(
GEOMETRIC_REPRESENTATION_CONTEXT(3)
GLOBAL_UNCERTAINTY_ASSIGNED_CONTEXT((#402))
GLOBAL_UNIT_ASSIGNED_CONTEXT((#405,#407,#408))
REPRESENTATION_CONTEXT('','3D')
);
#405=(
LENGTH_UNIT()
NAMED_UNIT(*)
SI_UNIT(.MILLI.,.METRE.)
);
#406=(
LENGTH_UNIT()
NAMED_UNIT(*)
SI_UNIT($,.METRE.)
);
#407=(
NAMED_UNIT(*)
PLANE_ANGLE_UNIT()
SI_UNIT($,.RADIAN.)
);
#408=(
NAMED_UNIT(*)
SI_UNIT($,.STERADIAN.)
SOLID_ANGLE_UNIT()
);
#409=SHAPE_DEFINITION_REPRESENTATION(#410,#411);
#410=PRODUCT_DEFINITION_SHAPE('',$,#413);
#411=SHAPE_REPRESENTATION('',(#241),#403);
#412=PRODUCT_DEFINITION_CONTEXT('part definition',#417,'design');
#413=PRODUCT_DEFINITION('Aft Closure','Aft Closure v3',#414,#412);
#414=PRODUCT_DEFINITION_FORMATION('',$,#419);
#415=PRODUCT_RELATED_PRODUCT_CATEGORY('Aft Closure v3','Aft Closure v3',
(#419));
#416=APPLICATION_PROTOCOL_DEFINITION('international standard',
'automotive_design',2009,#417);
#417=APPLICATION_CONTEXT(
'Core Data for Automotive Mechanical Design Process');
#418=PRODUCT_CONTEXT('part definition',#417,'mechanical');
#419=PRODUCT('Aft Closure','Aft Closure v3',$,(#418));
#420=PRESENTATION_STYLE_ASSIGNMENT((#422));
#421=PRESENTATION_STYLE_ASSIGNMENT((#423));
#422=SURFACE_STYLE_USAGE(.BOTH.,#424);
#423=SURFACE_STYLE_USAGE(.BOTH.,#425);
#424=SURFACE_SIDE_STYLE('',(#426));
#425=SURFACE_SIDE_STYLE('',(#427));
#426=SURFACE_STYLE_FILL_AREA(#428);
#427=SURFACE_STYLE_FILL_AREA(#429);
#428=FILL_AREA_STYLE('Aluminum - Satin',(#430));
#429=FILL_AREA_STYLE('Stainless Steel - Cast',(#431));
#430=FILL_AREA_STYLE_COLOUR('Aluminum - Satin',#432);
#431=FILL_AREA_STYLE_COLOUR('Stainless Steel - Cast',#433);
#432=COLOUR_RGB('Aluminum - Satin',0.96078431372549,0.96078431372549,0.964705882352941);
#433=COLOUR_RGB('Stainless Steel - Cast',0.796078431372549,0.796078431372549,
0.796078431372549);
ENDSEC;
END-ISO-10303-21;
