ISO-10303-21;
HEADER;
/* Generated by software containing ST-Developer
 * from STEP Tools, Inc. (www.steptools.com) 
 */

FILE_DESCRIPTION(
/* description */ (''),
/* implementation_level */ '2;1');

FILE_NAME(
/* name */ 'Nozzle.step',
/* time_stamp */ '2026-06-08T14:20:31+05:30',
/* author */ (''),
/* organization */ (''),
/* preprocessor_version */ 'ST-DEVELOPER v20.1',
/* originating_system */ 'Autodesk Translation Framework v15.8.0.0',
/* authorisation */ '');

FILE_SCHEMA (('AUTOMOTIVE_DESIGN { 1 0 10303 214 3 1 1 }'));
ENDSEC;

DATA;
#10=MECHANICAL_DESIGN_GEOMETRIC_PRESENTATION_REPRESENTATION('',(#13),#270);
#11=SHAPE_REPRESENTATION_RELATIONSHIP('SRR','None',#277,#12);
#12=ADVANCED_BREP_SHAPE_REPRESENTATION('',(#14),#269);
#13=STYLED_ITEM('',(#287),#14);
#14=MANIFOLD_SOLID_BREP('Body1',#146);
#15=CYLINDRICAL_SURFACE('',#171,12.);
#16=CYLINDRICAL_SURFACE('',#175,10.5);
#17=CYLINDRICAL_SURFACE('',#179,12.);
#18=FACE_BOUND('',#37,.T.);
#19=FACE_BOUND('',#42,.T.);
#20=FACE_BOUND('',#45,.T.);
#21=PLANE('',#165);
#22=PLANE('',#173);
#23=PLANE('',#177);
#24=FACE_OUTER_BOUND('',#34,.T.);
#25=FACE_OUTER_BOUND('',#35,.T.);
#26=FACE_OUTER_BOUND('',#36,.T.);
#27=FACE_OUTER_BOUND('',#38,.T.);
#28=FACE_OUTER_BOUND('',#39,.T.);
#29=FACE_OUTER_BOUND('',#40,.T.);
#30=FACE_OUTER_BOUND('',#41,.T.);
#31=FACE_OUTER_BOUND('',#43,.T.);
#32=FACE_OUTER_BOUND('',#44,.T.);
#33=FACE_OUTER_BOUND('',#46,.T.);
#34=EDGE_LOOP('',(#98,#99,#100,#101));
#35=EDGE_LOOP('',(#102,#103,#104,#105));
#36=EDGE_LOOP('',(#106));
#37=EDGE_LOOP('',(#107));
#38=EDGE_LOOP('',(#108,#109,#110,#111));
#39=EDGE_LOOP('',(#112,#113,#114,#115));
#40=EDGE_LOOP('',(#116,#117,#118,#119));
#41=EDGE_LOOP('',(#120));
#42=EDGE_LOOP('',(#121));
#43=EDGE_LOOP('',(#122,#123,#124,#125));
#44=EDGE_LOOP('',(#126));
#45=EDGE_LOOP('',(#127));
#46=EDGE_LOOP('',(#128,#129,#130,#131));
#47=LINE('',#234,#54);
#48=LINE('',#238,#55);
#49=LINE('',#246,#56);
#50=LINE('',#250,#57);
#51=LINE('',#254,#58);
#52=LINE('',#261,#59);
#53=LINE('',#266,#60);
#54=VECTOR('',#186,9.);
#55=VECTOR('',#191,9.8775);
#56=VECTOR('',#202,13.9924518109011);
#57=VECTOR('',#207,11.6149518109012);
#58=VECTOR('',#212,12.);
#59=VECTOR('',#221,10.5);
#60=VECTOR('',#228,12.);
#61=CIRCLE('',#161,12.);
#62=CIRCLE('',#162,6.);
#63=CIRCLE('',#164,13.755);
#64=CIRCLE('',#166,16.755);
#65=CIRCLE('',#168,11.2299036218023);
#66=CIRCLE('',#170,12.);
#67=CIRCLE('',#172,12.);
#68=CIRCLE('',#174,10.5);
#69=CIRCLE('',#176,10.5);
#70=CIRCLE('',#178,12.);
#71=VERTEX_POINT('',#231);
#72=VERTEX_POINT('',#233);
#73=VERTEX_POINT('',#237);
#74=VERTEX_POINT('',#241);
#75=VERTEX_POINT('',#244);
#76=VERTEX_POINT('',#248);
#77=VERTEX_POINT('',#252);
#78=VERTEX_POINT('',#256);
#79=VERTEX_POINT('',#259);
#80=VERTEX_POINT('',#263);
#81=EDGE_CURVE('',#71,#71,#61,.T.);
#82=EDGE_CURVE('',#71,#72,#47,.T.);
#83=EDGE_CURVE('',#72,#72,#62,.T.);
#84=EDGE_CURVE('',#72,#73,#48,.T.);
#85=EDGE_CURVE('',#73,#73,#63,.T.);
#86=EDGE_CURVE('',#74,#74,#64,.T.);
#87=EDGE_CURVE('',#75,#75,#65,.T.);
#88=EDGE_CURVE('',#75,#74,#49,.T.);
#89=EDGE_CURVE('',#76,#76,#66,.T.);
#90=EDGE_CURVE('',#76,#75,#50,.T.);
#91=EDGE_CURVE('',#77,#77,#67,.T.);
#92=EDGE_CURVE('',#77,#76,#51,.T.);
#93=EDGE_CURVE('',#78,#78,#68,.T.);
#94=EDGE_CURVE('',#79,#79,#69,.T.);
#95=EDGE_CURVE('',#79,#78,#52,.T.);
#96=EDGE_CURVE('',#80,#80,#70,.T.);
#97=EDGE_CURVE('',#71,#80,#53,.T.);
#98=ORIENTED_EDGE('',*,*,#81,.T.);
#99=ORIENTED_EDGE('',*,*,#82,.T.);
#100=ORIENTED_EDGE('',*,*,#83,.F.);
#101=ORIENTED_EDGE('',*,*,#82,.F.);
#102=ORIENTED_EDGE('',*,*,#83,.T.);
#103=ORIENTED_EDGE('',*,*,#84,.T.);
#104=ORIENTED_EDGE('',*,*,#85,.F.);
#105=ORIENTED_EDGE('',*,*,#84,.F.);
#106=ORIENTED_EDGE('',*,*,#86,.F.);
#107=ORIENTED_EDGE('',*,*,#85,.T.);
#108=ORIENTED_EDGE('',*,*,#87,.F.);
#109=ORIENTED_EDGE('',*,*,#88,.T.);
#110=ORIENTED_EDGE('',*,*,#86,.T.);
#111=ORIENTED_EDGE('',*,*,#88,.F.);
#112=ORIENTED_EDGE('',*,*,#89,.F.);
#113=ORIENTED_EDGE('',*,*,#90,.T.);
#114=ORIENTED_EDGE('',*,*,#87,.T.);
#115=ORIENTED_EDGE('',*,*,#90,.F.);
#116=ORIENTED_EDGE('',*,*,#91,.F.);
#117=ORIENTED_EDGE('',*,*,#92,.T.);
#118=ORIENTED_EDGE('',*,*,#89,.T.);
#119=ORIENTED_EDGE('',*,*,#92,.F.);
#120=ORIENTED_EDGE('',*,*,#91,.T.);
#121=ORIENTED_EDGE('',*,*,#93,.F.);
#122=ORIENTED_EDGE('',*,*,#94,.F.);
#123=ORIENTED_EDGE('',*,*,#95,.T.);
#124=ORIENTED_EDGE('',*,*,#93,.T.);
#125=ORIENTED_EDGE('',*,*,#95,.F.);
#126=ORIENTED_EDGE('',*,*,#96,.F.);
#127=ORIENTED_EDGE('',*,*,#94,.T.);
#128=ORIENTED_EDGE('',*,*,#81,.F.);
#129=ORIENTED_EDGE('',*,*,#97,.T.);
#130=ORIENTED_EDGE('',*,*,#96,.T.);
#131=ORIENTED_EDGE('',*,*,#97,.F.);
#132=CONICAL_SURFACE('',#160,9.,0.588002603547568);
#133=CONICAL_SURFACE('',#163,9.8775,0.17065707339429);
#134=CONICAL_SURFACE('',#167,13.9924518109011,0.170657073394288);
#135=CONICAL_SURFACE('',#169,11.6149518109012,0.280603666126571);
#136=ADVANCED_FACE('',(#24),#132,.F.);
#137=ADVANCED_FACE('',(#25),#133,.F.);
#138=ADVANCED_FACE('',(#26,#18),#21,.T.);
#139=ADVANCED_FACE('',(#27),#134,.T.);
#140=ADVANCED_FACE('',(#28),#135,.T.);
#141=ADVANCED_FACE('',(#29),#15,.T.);
#142=ADVANCED_FACE('',(#30,#19),#22,.T.);
#143=ADVANCED_FACE('',(#31),#16,.T.);
#144=ADVANCED_FACE('',(#32,#20),#23,.T.);
#145=ADVANCED_FACE('',(#33),#17,.T.);
#146=CLOSED_SHELL('',(#136,#137,#138,#139,#140,#141,#142,#143,#144,#145));
#147=DERIVED_UNIT_ELEMENT(#149,1.);
#148=DERIVED_UNIT_ELEMENT(#272,-3.);
#149=(
MASS_UNIT()
NAMED_UNIT(*)
SI_UNIT(.KILO.,.GRAM.)
);
#150=DERIVED_UNIT((#147,#148));
#151=MEASURE_REPRESENTATION_ITEM('density measure',
POSITIVE_RATIO_MEASURE(1380.),#150);
#152=PROPERTY_DEFINITION_REPRESENTATION(#157,#154);
#153=PROPERTY_DEFINITION_REPRESENTATION(#158,#155);
#154=REPRESENTATION('material name',(#156),#269);
#155=REPRESENTATION('density',(#151),#269);
#156=DESCRIPTIVE_REPRESENTATION_ITEM('Phenolic Resin','Phenolic Resin');
#157=PROPERTY_DEFINITION('material property','material name',#279);
#158=PROPERTY_DEFINITION('material property','density of part',#279);
#159=AXIS2_PLACEMENT_3D('',#229,#180,#181);
#160=AXIS2_PLACEMENT_3D('',#230,#182,#183);
#161=AXIS2_PLACEMENT_3D('',#232,#184,#185);
#162=AXIS2_PLACEMENT_3D('',#235,#187,#188);
#163=AXIS2_PLACEMENT_3D('',#236,#189,#190);
#164=AXIS2_PLACEMENT_3D('',#239,#192,#193);
#165=AXIS2_PLACEMENT_3D('',#240,#194,#195);
#166=AXIS2_PLACEMENT_3D('',#242,#196,#197);
#167=AXIS2_PLACEMENT_3D('',#243,#198,#199);
#168=AXIS2_PLACEMENT_3D('',#245,#200,#201);
#169=AXIS2_PLACEMENT_3D('',#247,#203,#204);
#170=AXIS2_PLACEMENT_3D('',#249,#205,#206);
#171=AXIS2_PLACEMENT_3D('',#251,#208,#209);
#172=AXIS2_PLACEMENT_3D('',#253,#210,#211);
#173=AXIS2_PLACEMENT_3D('',#255,#213,#214);
#174=AXIS2_PLACEMENT_3D('',#257,#215,#216);
#175=AXIS2_PLACEMENT_3D('',#258,#217,#218);
#176=AXIS2_PLACEMENT_3D('',#260,#219,#220);
#177=AXIS2_PLACEMENT_3D('',#262,#222,#223);
#178=AXIS2_PLACEMENT_3D('',#264,#224,#225);
#179=AXIS2_PLACEMENT_3D('',#265,#226,#227);
#180=DIRECTION('axis',(0.,0.,1.));
#181=DIRECTION('refdir',(1.,0.,0.));
#182=DIRECTION('center_axis',(3.42387545668842E-34,0.,1.));
#183=DIRECTION('ref_axis',(1.,0.,0.));
#184=DIRECTION('center_axis',(3.42387545668842E-34,0.,1.));
#185=DIRECTION('ref_axis',(1.,0.,-3.42387545668842E-34));
#186=DIRECTION('',(0.554700196225229,6.79311819793636E-17,-0.832050294337844));
#187=DIRECTION('center_axis',(3.42387545668842E-34,0.,1.));
#188=DIRECTION('ref_axis',(1.,0.,-3.42387545668842E-34));
#189=DIRECTION('center_axis',(-3.42387545668842E-34,0.,-1.));
#190=DIRECTION('ref_axis',(1.,0.,0.));
#191=DIRECTION('',(-0.169829914026697,-2.07981660612264E-17,-0.985473388936345));
#192=DIRECTION('center_axis',(3.42387545668842E-34,0.,1.));
#193=DIRECTION('ref_axis',(1.,0.,-3.42387545668842E-34));
#194=DIRECTION('center_axis',(-3.42387545668842E-34,0.,-1.));
#195=DIRECTION('ref_axis',(-1.,0.,3.42387545668842E-34));
#196=DIRECTION('center_axis',(3.42387545668842E-34,0.,1.));
#197=DIRECTION('ref_axis',(1.,0.,-3.42387545668842E-34));
#198=DIRECTION('center_axis',(-3.42387545668842E-34,0.,-1.));
#199=DIRECTION('ref_axis',(1.,0.,0.));
#200=DIRECTION('center_axis',(3.42387545668842E-34,0.,1.));
#201=DIRECTION('ref_axis',(1.,0.,-3.42387545668842E-34));
#202=DIRECTION('',(-0.169829914026695,-2.07981660612262E-17,-0.985473388936345));
#203=DIRECTION('center_axis',(3.42387545668842E-34,0.,1.));
#204=DIRECTION('ref_axis',(1.,0.,0.));
#205=DIRECTION('center_axis',(3.42387545668842E-34,0.,1.));
#206=DIRECTION('ref_axis',(1.,0.,-3.42387545668842E-34));
#207=DIRECTION('',(0.276935754788977,3.39148485671777E-17,-0.960888436666536));
#208=DIRECTION('center_axis',(3.42387545668842E-34,0.,1.));
#209=DIRECTION('ref_axis',(1.,0.,0.));
#210=DIRECTION('center_axis',(3.42387545668842E-34,0.,1.));
#211=DIRECTION('ref_axis',(1.,0.,-3.42387545668842E-34));
#212=DIRECTION('',(-3.42387545668842E-34,0.,-1.));
#213=DIRECTION('center_axis',(3.42387545668842E-34,0.,1.));
#214=DIRECTION('ref_axis',(1.,0.,-3.42387545668842E-34));
#215=DIRECTION('center_axis',(3.42387545668842E-34,0.,1.));
#216=DIRECTION('ref_axis',(1.,0.,-3.42387545668842E-34));
#217=DIRECTION('center_axis',(3.42387545668842E-34,0.,1.));
#218=DIRECTION('ref_axis',(1.,0.,0.));
#219=DIRECTION('center_axis',(3.42387545668842E-34,0.,1.));
#220=DIRECTION('ref_axis',(1.,0.,-3.42387545668842E-34));
#221=DIRECTION('',(-3.42387545668842E-34,0.,-1.));
#222=DIRECTION('center_axis',(-3.42387545668842E-34,0.,-1.));
#223=DIRECTION('ref_axis',(-1.,0.,3.42387545668842E-34));
#224=DIRECTION('center_axis',(3.42387545668842E-34,0.,1.));
#225=DIRECTION('ref_axis',(1.,0.,-3.42387545668842E-34));
#226=DIRECTION('center_axis',(3.42387545668842E-34,0.,1.));
#227=DIRECTION('ref_axis',(1.,0.,0.));
#228=DIRECTION('',(-3.42387545668842E-34,0.,-1.));
#229=CARTESIAN_POINT('',(0.,0.,0.));
#230=CARTESIAN_POINT('Origin',(1.69481835106077E-32,0.,49.5));
#231=CARTESIAN_POINT('',(-12.,-1.46957615897682E-15,54.));
#232=CARTESIAN_POINT('Origin',(1.84889274661175E-32,0.,54.));
#233=CARTESIAN_POINT('',(-6.,-7.34788079488412E-16,45.));
#234=CARTESIAN_POINT('',(-9.,-1.10218211923262E-15,49.5));
#235=CARTESIAN_POINT('Origin',(1.54074395550979E-32,0.,45.));
#236=CARTESIAN_POINT('Origin',(7.70371977754894E-33,0.,22.5));
#237=CARTESIAN_POINT('',(-13.755,-1.68450167222718E-15,4.44089209850063E-15));
#238=CARTESIAN_POINT('',(-9.8775,-1.2096448758578E-15,22.5));
#239=CARTESIAN_POINT('Origin',(-3.42113882891801E-48,0.,0.));
#240=CARTESIAN_POINT('Origin',(16.755,0.,3.36900334445437E-15));
#241=CARTESIAN_POINT('',(-16.755,-2.05189571197139E-15,-2.22044604925031E-15));
#242=CARTESIAN_POINT('Origin',(-3.42113882891801E-48,0.,0.));
#243=CARTESIAN_POINT('Origin',(5.48856147538186E-33,0.,16.0302602849065));
#244=CARTESIAN_POINT('',(-11.2299036218023,-1.37526655251734E-15,32.0605205698131));
#245=CARTESIAN_POINT('Origin',(1.09771229507637E-32,0.,32.0605205698131));
#246=CARTESIAN_POINT('',(-13.9924518109011,-1.71358113224437E-15,16.0302602849065));
#247=CARTESIAN_POINT('Origin',(1.14345554120322E-32,0.,33.3965284563585));
#248=CARTESIAN_POINT('',(-12.,-1.46957615897683E-15,34.732536342904));
#249=CARTESIAN_POINT('Origin',(1.18919878733007E-32,0.,34.732536342904));
#250=CARTESIAN_POINT('',(-11.6149518109012,-1.42242135574708E-15,33.3965284563585));
#251=CARTESIAN_POINT('Origin',(1.3323379969199E-32,0.,38.9131559770151));
#252=CARTESIAN_POINT('',(-12.,-1.46957615897683E-15,43.0937756111263));
#253=CARTESIAN_POINT('Origin',(1.47547720650973E-32,0.,43.0937756111263));
#254=CARTESIAN_POINT('',(-12.,-1.46957615897683E-15,38.9131559770151));
#255=CARTESIAN_POINT('Origin',(10.5,0.,43.0937756111263));
#256=CARTESIAN_POINT('',(-10.5,-1.28587913910472E-15,43.0937756111263));
#257=CARTESIAN_POINT('Origin',(1.47547720650973E-32,0.,43.0937756111263));
#258=CARTESIAN_POINT('Origin',(1.51827564971834E-32,0.,44.3437756111263));
#259=CARTESIAN_POINT('',(-10.5,-1.28587913910472E-15,45.5937756111263));
#260=CARTESIAN_POINT('Origin',(1.56107409292694E-32,0.,45.5937756111263));
#261=CARTESIAN_POINT('',(-10.5,-1.28587913910472E-15,44.3437756111263));
#262=CARTESIAN_POINT('Origin',(12.,0.,45.5937756111263));
#263=CARTESIAN_POINT('',(-12.,-1.46957615897682E-15,45.5937756111263));
#264=CARTESIAN_POINT('Origin',(1.56107409292694E-32,0.,45.5937756111263));
#265=CARTESIAN_POINT('Origin',(1.70498341976934E-32,0.,49.7968878055631));
#266=CARTESIAN_POINT('',(-12.,-1.46957615897682E-15,49.7968878055631));
#267=UNCERTAINTY_MEASURE_WITH_UNIT(LENGTH_MEASURE(0.01),#271,
'DISTANCE_ACCURACY_VALUE',
'Maximum model space distance between geometric entities at asserted c
onnectivities');
#268=UNCERTAINTY_MEASURE_WITH_UNIT(LENGTH_MEASURE(0.01),#271,
'DISTANCE_ACCURACY_VALUE',
'Maximum model space distance between geometric entities at asserted c
onnectivities');
#269=(
GEOMETRIC_REPRESENTATION_CONTEXT(3)
GLOBAL_UNCERTAINTY_ASSIGNED_CONTEXT((#267))
GLOBAL_UNIT_ASSIGNED_CONTEXT((#271,#273,#274))
REPRESENTATION_CONTEXT('','3D')
);
#270=(
GEOMETRIC_REPRESENTATION_CONTEXT(3)
GLOBAL_UNCERTAINTY_ASSIGNED_CONTEXT((#268))
GLOBAL_UNIT_ASSIGNED_CONTEXT((#271,#273,#274))
REPRESENTATION_CONTEXT('','3D')
);
#271=(
LENGTH_UNIT()
NAMED_UNIT(*)
SI_UNIT(.MILLI.,.METRE.)
);
#272=(
LENGTH_UNIT()
NAMED_UNIT(*)
SI_UNIT($,.METRE.)
);
#273=(
NAMED_UNIT(*)
PLANE_ANGLE_UNIT()
SI_UNIT($,.RADIAN.)
);
#274=(
NAMED_UNIT(*)
SI_UNIT($,.STERADIAN.)
SOLID_ANGLE_UNIT()
);
#275=SHAPE_DEFINITION_REPRESENTATION(#276,#277);
#276=PRODUCT_DEFINITION_SHAPE('',$,#279);
#277=SHAPE_REPRESENTATION('',(#159),#269);
#278=PRODUCT_DEFINITION_CONTEXT('part definition',#283,'design');
#279=PRODUCT_DEFINITION('Nozzle','Nozzle v8',#280,#278);
#280=PRODUCT_DEFINITION_FORMATION('',$,#285);
#281=PRODUCT_RELATED_PRODUCT_CATEGORY('Nozzle v8','Nozzle v8',(#285));
#282=APPLICATION_PROTOCOL_DEFINITION('international standard',
'automotive_design',2009,#283);
#283=APPLICATION_CONTEXT(
'Core Data for Automotive Mechanical Design Process');
#284=PRODUCT_CONTEXT('part definition',#283,'mechanical');
#285=PRODUCT('Nozzle','Nozzle v8',$,(#284));
#286=PRESENTATION_STYLE_ASSIGNMENT((#288));
#287=PRESENTATION_STYLE_ASSIGNMENT((#289));
#288=SURFACE_STYLE_USAGE(.BOTH.,#290);
#289=SURFACE_STYLE_USAGE(.BOTH.,#291);
#290=SURFACE_SIDE_STYLE('',(#292));
#291=SURFACE_SIDE_STYLE('',(#293));
#292=SURFACE_STYLE_FILL_AREA(#294);
#293=SURFACE_STYLE_FILL_AREA(#295);
#294=FILL_AREA_STYLE('Phenolic (Amber)',(#296));
#295=FILL_AREA_STYLE('Steel - Satin',(#297));
#296=FILL_AREA_STYLE_COLOUR('Phenolic (Amber)',#298);
#297=FILL_AREA_STYLE_COLOUR('Steel - Satin',#299);
#298=COLOUR_RGB('Phenolic (Amber)',0.964705882352941,0.701960784313725,
0.152941176470588);
#299=COLOUR_RGB('Steel - Satin',0.627450980392157,0.627450980392157,0.627450980392157);
ENDSEC;
END-ISO-10303-21;
